# xmcd
# 
# Track frame offsets:
#     150
#     16161
#     29302
#     42241
#     60714
#     76084
#     94386
#     110867
#     129768
#     141815
#     161033
#     182616
#     201117
# 
# Disc length: 3236
# 
# Revision: 0
# Processed by: cddbd v1.5.2PL0 Copyright (c) Steve Scherf et al.
# Submitted via: BonkEnc v1.0beta4
# 
DISCID=a80ca20d
DTITLE=Olivia Ruiz - La femme chocolat
DYEAR=0
DGENRE=
TTITLE0=J'traîne des pieds
TTITLE1=La femme chocolat
TTITLE2=I need a child
TTITLE3=Non-dits
TTITLE4=Thérapie de groupe
TTITLE5=La petite valse de Narbonne plage
TTITLE6=Quijote
TTITLE7=Cabaret blanc
TTITLE8=Goûtez-moi
TTITLE9=Vitrier
TTITLE10=La petite voleuse
TTITLE11=La fille du vent
TTITLE12=De toi a moi
EXTD=
EXTT0=
EXTT1=
EXTT2=
EXTT3=
EXTT4=
EXTT5=
EXTT6=
EXTT7=
EXTT8=
EXTT9=
EXTT10=
EXTT11=
EXTT12=
PLAYORDER=
